<svg clip-rule="evenodd" fill-rule="evenodd" stroke-linejoin="round" stroke-miterlimit="2" viewBox="0 0 173 173" xmlns="http://www.w3.org/2000/svg"><path d="M71.201 172.966c10.59-3.625 19.38-9.95 26.39-18.979 5.32-6.848 8.99-14.21 11.02-22.09 2.03-7.88 3.02-15.463 2.95-22.75-.06-7.288-.58-16.326-1.54-27.114-1.03-13.409-1.27-23.927-.72-31.554.55-7.628 3.09-14.355 7.61-20.183 4.97-6.41 10.93-10.249 17.87-11.518 6.94-1.268 13.32.36 19.15 4.883 4.81 3.732 7.52 8.057 8.14 12.974s-.88 9.706-4.5 14.368c-2.83 3.642-6.34 6.517-10.55 8.624-4.2 2.107-8.48 3.106-12.83 2.996-.15 7.118 2.54 12.825 8.07 17.123 4.96 3.845 10.43 5.061 16.43 3.648 5.24-1.233 10-4.26 14.29-9.079v55.41c0 23.865-19.38 43.241-43.25 43.241zM96.121 0c-6.4 2.983-11.88 7.416-16.45 13.3-5.99 7.721-9.5 16.378-10.53 25.972-1.02 9.593-1.11 21.96-.25 37.1.79 14.621.7 26.462-.26 35.522-.96 9.06-4.1 17.012-9.42 23.86-6.1 7.867-13.68 12.436-22.72 13.706s-17.42-1.09-25.14-7.085c-6.27-4.863-9.82-10.659-10.67-17.387-.85-6.729 1.16-13.225 6.02-19.49 5.32-6.847 11.79-10.52 19.41-11.022 7.63-.5 15.23 2.19 22.81 8.07 2.63-5.194 3.19-10.424 1.67-15.688-1.52-5.263-4.83-9.874-9.92-13.833-5.54-4.297-11.79-6.697-18.76-7.2-6.96-.503-12.11 1.624-18.64 6.732-.44.205-2.83 2.844-3.26 3.063V43.241C.01 19.375 19.39 0 43.25 0z" fill="#f06864"/></svg>